Coordinates
version=1
nRows=9
nColumns=24
inDegrees=yes

Units are S.I. units (second, meters, Newtons, ...)
Angles are in degrees.

endheader
time	pelvis_tilt	pelvis_list	pelvis_rotation	pelvis_tx	pelvis_ty	pelvis_tz	hip_flexion_r	hip_adduction_r	hip_rotation_r	knee_angle_r	ankle_angle_r	subtalar_angle_r	mtp_angle_r	hip_flexion_l	hip_adduction_l	hip_rotation_l	knee_angle_l	ankle_angle_l	subtalar_angle_l	mtp_angle_l	lumbar_extension	lumbar_bending	lumbar_rotation
      5.14500000	     33.69140932	     -6.22220038	     -5.26004363	      1.44972628	      0.64422647	     -0.31095714	    -57.39126741	      3.41629950	     -1.14894617	     -6.19617793	     22.33355000	     17.47275955	      0.00000000	     -6.49579657	     -4.78741786	    -15.32969995	     -6.05035531	      9.21660703	     11.87566209	      0.00000000	    -62.94443341	     -1.28823195	     14.48275027
      5.15000000	     33.79103931	     -6.24712038	     -5.67777561	      1.45751715	      0.64370547	     -0.31120604	    -57.62545728	      2.83473113	     -1.03842172	     -7.31624919	     21.84016600	     17.76521970	      0.00000000	     -6.55985219	     -4.61476925	    -15.17300335	     -6.67253110	      9.01977348	     11.51325038	      0.00000000	    -63.03080118	     -1.60534370	     14.66910556
      5.15500000	     33.86197241	     -6.22475116	     -6.01021477	      1.46540621	      0.64328449	     -0.31144362	    -57.74859153	      2.31185067	     -0.98125308	     -8.57082121	     21.09039761	     17.98002160	      0.00000000	     -6.56217723	     -4.42551495	    -14.98184838	     -7.50435907	      8.81119100	     11.27570168	      0.00000000	    -63.07755522	     -1.87385308	     14.60412792
      5.16000000	     33.97177906	     -6.16947686	     -6.36614611	      1.47332296	      0.64300265	     -0.31167601	    -57.79051291	      1.74333046	     -0.96264888	    -10.03151495	     20.27763041	     18.17467862	      0.00000000	     -6.60776891	     -4.18008432	    -14.69528730	     -8.49055176	      8.52309470	     10.76475419	      0.00000000	    -63.15790539	     -2.20107260	     14.58260516
      5.16500000	     34.10841836	     -6.06164907	     -6.69922830	      1.48127990	      0.64281118	     -0.31191360	    -57.75305303	      1.16324738	     -1.04342637	    -11.66750361	     19.39562467	     18.28665594	      0.00000000	     -6.65619584	     -3.86980398	    -14.25995192	     -9.64963328	      8.21304218	     10.07300588	      0.00000000	    -63.26294811	     -2.55480086	     14.54903272
      5.17000000	     34.22742793	     -5.91607538	     -6.96417320	      1.48929980	      0.64271391	     -0.31216891	    -57.59525967	      0.62656491	     -1.18541430	    -13.45998877	     18.28649086	     18.36182457	      0.00000000	     -6.66959730	     -3.52799879	    -13.75289567	    -10.92728933	      7.84525463	      9.37550634	      0.00000000	    -63.34314225	     -2.87201005	     14.36352231
      5.17500000	     34.33027220	     -5.73257467	     -7.16570334	      1.49736319	      0.64269241	     -0.31245817	    -57.30903900	      0.12599606	     -1.41289554	    -15.41982014	     17.00341199	     18.37316575	      0.00000000	     -6.64967760	     -3.14503688	    -13.13925364	    -12.30282729	      7.44548875	      8.59452895	      0.00000000	    -63.40388150	     -3.16075414	     14.09800735
      5.18000000	     34.36421405	     -5.51102751	     -7.22015466	      1.50548608	      0.64268464	     -0.31288040	    -56.84289941	     -0.27102932	     -1.80513127	    -17.53725360	     15.51239057	     18.36957346	      0.00000000	     -6.51824960	     -2.73588235	    -12.30570953	    -13.77314055	      7.08506878	      7.77491882	      0.00000000	    -63.39304426	     -3.32454244	     13.67426798
      5.18500000	     34.47494299	     -5.26971199	     -7.38827564	      1.51360239	      0.64286793	     -0.31313914	    -56.33496987	     -0.77888393	     -2.13415825	    -19.80576918	     13.87335607	     18.17837329	      0.00000000	     -6.54805844	     -2.27047511	    -11.71102433	    -15.19039501	      6.63028544	      6.94055284	      0.00000000	    -63.45554686	     -3.63950496	     13.35365250
